<?xml version="1.0"?>
<svg width="65" height="35" xmlns="http://www.w3.org/2000/svg">
    <style type="text/css"><![CDATA[
	.st0{fill:#E2001A;}
	.st1{fill:#0189B4;}
]]></style>
    <g>
        <title>Layer 1</title>
        <path id="svg_1"
              d="m30.1,33.700001h-8.5l-0.1,-0.200001l-6.8,-12.1h-7v12.4h-7.7v-32.499999h16.799999c7.800001,0 11.5,3.2 11.5,9.9c0,4.8 -2.199999,8.000001 -6.099998,9.099999l7.4,12.700001l0.5,0.700001zm-22.5,-18.900001h7.6c4.099999,0 5.400001,-0.900001 5.400001,-3.5c0,-2.7 -1.300001,-3.5 -5.400001,-3.5h-7.6v7l0,0z"
              class="st0"/>
        <g id="svg_2">
            <path id="svg_3"
                  d="m60.5,7.1c-3.100006,-4.3 -7.899994,-5.8 -13,-5.8h-14.199997v32.400001h12.899994c5.199997,0.200001 10.199997,-1.700001 13,-4.900002c0,0 4,-3.4 4,-11.4c0.100006,-6.7 -2.699997,-10.3 -2.699997,-10.3zm-10.800003,17.3s-2,1.9 -6.099991,1.1v-15.5s7,-1.7 8.799988,4.9c0,0 1.600006,6.800001 -2.699997,9.5z"
                  class="st1"/>
        </g>
    </g>
</svg>